<?xml version="1.0" encoding="utf-8"?>
<!-- Generator: Adobe Illustrator 17.1.0, SVG Export Plug-In . SVG Version: 6.00 Build 0)  -->
<!DOCTYPE svg PUBLIC "-//W3C//DTD SVG 1.1//EN" "http://www.w3.org/Graphics/SVG/1.1/DTD/svg11.dtd">
<svg version="1.1" id="Layer_1" xmlns:sketch="http://www.bohemiancoding.com/sketch/ns"
	 xmlns="http://www.w3.org/2000/svg" xmlns:xlink="http://www.w3.org/1999/xlink" x="0px" y="0px" viewBox="-0.8 0 85 70"
	 enable-background="new -0.8 0 85 70" xml:space="preserve">
<title>watch</title>
<desc>Created with Sketch Beta.</desc>
<g>
	<path fill="#E87E54" d="M63.5,48.8H24.2c-2.2,0-4.1-1.4-4.6-3.4L14,22H7.8c-2.6,0-4.7-1.9-4.7-4.3s2.1-4.3,4.7-4.3h9.9
		c2.2,0,4.1,1.4,4.6,3.4L28,40.2h35.5c2.6,0,4.7,1.9,4.7,4.3S66.1,48.8,63.5,48.8z"/>
</g>
<g>
	<path fill="#E87E54" d="M73.9,24.2H32c-2.6,0-4.7-1.9-4.7-4.3s2.1-4.3,4.7-4.3h41.9c2.6,0,4.7,1.9,4.7,4.3S76.5,24.2,73.9,24.2z"/>
</g>
<g>
	<path fill="#E87E54" d="M67.5,36.2H32c-2.6,0-4.7-1.9-4.7-4.3s2.1-4.3,4.7-4.3h35.5c2.6,0,4.7,1.9,4.7,4.3S70.1,36.2,67.5,36.2z"/>
</g>
<ellipse fill="#E87E54" cx="28.3" cy="60.1" rx="9.2" ry="8.4"/>
<ellipse fill="#E87E54" cx="55.2" cy="60.1" rx="9.2" ry="8.4"/>
<g>
	<path fill="#E87E54" d="M51.4,20.3c-0.9,0-1.8-0.3-2.5-0.9L39,10.3C37.6,9,37.6,7,39,5.7c1.4-1.3,3.6-1.3,5,0l7.4,6.8l7.3-6.7
		c1.4-1.3,3.6-1.3,5,0c1.4,1.3,1.4,3.3,0,4.6l-9.8,9C53.2,20,52.3,20.3,51.4,20.3z"/>
</g>
</svg>
